<svg width="108" height="46" viewBox="0 0 108 46" fill="none" xmlns="http://www.w3.org/2000/svg">
<path d="M47.9622 19.4736V4.47755H49.6747V17.9144H56.2123V19.4736H47.9622ZM66.9405 19.4736H58.7407V4.47755H66.9405V6.01606H60.4532V10.8679H66.5678V12.3859H60.4532V17.9351H66.9405V19.4736ZM79.4415 19.4736L77.6284 14.7141H71.7254L69.9222 19.4736H68.1896L73.9517 4.41602H75.4929L81.2145 19.4736H79.4415ZM77.1147 13.1654L75.3921 8.43685C75.3518 8.31379 75.2846 8.11208 75.1906 7.83156C75.1033 7.55122 75.0128 7.26066 74.9187 6.95987C74.8247 6.6589 74.7475 6.41612 74.6871 6.23152C74.6199 6.51185 74.5459 6.79219 74.4654 7.07253C74.3915 7.34617 74.3175 7.60253 74.2438 7.84197C74.1698 8.07435 74.1061 8.2727 74.0523 8.43685L72.2996 13.1654H77.1147ZM94.9546 11.832C94.9546 13.521 94.6525 14.9331 94.048 16.0682C93.4437 17.1965 92.5673 18.0479 91.4188 18.6221C90.2772 19.1897 88.8904 19.4736 87.2586 19.4736H83.2594V4.47755H87.7019C89.1993 4.47755 90.4888 4.75788 91.57 5.31856C92.6511 5.87254 93.484 6.69645 94.0682 7.79066C94.6592 8.87781 94.9546 10.225 94.9546 11.832ZM93.1516 11.8935C93.1516 10.5464 92.9299 9.43514 92.4866 8.55992C92.0501 7.6847 91.4055 7.03498 90.5525 6.61112C89.7065 6.18021 88.6688 5.96475 87.4399 5.96475H84.9719V17.976H87.057C89.0852 17.976 90.6064 17.4666 91.6204 16.4477C92.6411 15.4287 93.1516 13.9107 93.1516 11.8935ZM56.4944 36.316C56.4944 37.2049 56.2828 37.9775 55.8598 38.6339C55.4368 39.2905 54.8188 39.7966 54.0063 40.152C53.2005 40.5076 52.2199 40.6855 51.0648 40.6855C50.5545 40.6855 50.0541 40.6513 49.5639 40.5829C49.0804 40.5145 48.6136 40.4154 48.1637 40.2855C47.7205 40.1487 47.2975 39.9812 46.8945 39.7828V36.8287C47.5929 37.1432 48.3182 37.4271 49.0702 37.6801C49.8224 37.9331 50.5678 38.0597 51.3067 38.0597C51.817 38.0597 52.2267 37.9913 52.5356 37.8545C52.8512 37.7176 53.0794 37.5297 53.2206 37.2903C53.3615 37.051 53.4321 36.7775 53.4321 36.4697C53.4321 36.0936 53.3078 35.7722 53.0593 35.5056C52.8109 35.2388 52.4684 34.9894 52.0318 34.7568C51.6021 34.5242 51.1152 34.2748 50.5713 34.008C50.2288 33.8438 49.856 33.6457 49.4531 33.4131C49.0501 33.1737 48.6673 32.8831 48.3047 32.5412C47.9421 32.1994 47.6432 31.7856 47.4081 31.3002C47.1799 30.8077 47.0658 30.2197 47.0658 29.5358C47.0658 28.6401 47.2672 27.8742 47.6701 27.2383C48.073 26.6023 48.6472 26.1169 49.3926 25.7817C50.1448 25.4399 51.0312 25.2688 52.0521 25.2688C52.8176 25.2688 53.5463 25.3612 54.238 25.5458C54.9363 25.7235 55.665 25.9834 56.4239 26.3253L55.4165 28.7974C54.7383 28.5171 54.1305 28.3016 53.5932 28.1512C53.0561 27.9939 52.5087 27.9153 51.9513 27.9153C51.5617 27.9153 51.2295 27.9802 50.954 28.1101C50.6786 28.2332 50.4705 28.4109 50.3294 28.6435C50.1884 28.8692 50.118 29.1324 50.118 29.4334C50.118 29.7888 50.2187 30.0898 50.4201 30.3359C50.6283 30.5753 50.9372 30.8077 51.3468 31.0334C51.7633 31.2591 52.2803 31.5223 52.8981 31.8233C53.6503 32.1856 54.2917 32.5652 54.8222 32.9618C55.3595 33.3516 55.7725 33.8132 56.0612 34.3465C56.35 34.873 56.4944 35.5294 56.4944 36.316ZM63.8682 25.4843C65.7687 25.4843 67.1553 25.9014 68.0284 26.7356C68.9014 27.563 69.338 28.705 69.338 30.1615C69.338 30.818 69.2406 31.4472 69.0458 32.049C68.851 32.6439 68.5321 33.1737 68.0888 33.6388C67.6523 34.1037 67.0681 34.4729 66.3362 34.7466C65.6041 35.0132 64.7009 35.1466 63.6263 35.1466H62.2866V40.4803H59.1639V25.4843H63.8682ZM63.707 28.0897H62.2866V32.5412H63.3141C63.8983 32.5412 64.4053 32.4626 64.8353 32.3053C65.265 32.1481 65.5975 31.9019 65.8324 31.5668C66.0674 31.2318 66.185 30.8008 66.185 30.2744C66.185 29.5358 65.9836 28.9889 65.5807 28.6332C65.1778 28.2707 64.5532 28.0897 63.707 28.0897ZM81.1339 40.4803L80.0661 36.9108H74.6971L73.6292 40.4803H70.2647L75.4626 25.4228H79.2805L84.4985 40.4803H81.1339ZM79.3207 34.2439L78.253 30.7564C78.1858 30.524 78.0951 30.2266 77.981 29.8641C77.8734 29.4949 77.7628 29.1222 77.6485 28.7461C77.5412 28.3631 77.4537 28.0315 77.3867 27.7512C77.3195 28.0315 77.2255 28.3802 77.1046 28.7974C76.9903 29.2077 76.8795 29.5973 76.7722 29.9667C76.6646 30.3359 76.5874 30.5991 76.5405 30.7564L75.4827 34.2439H79.3207ZM92.6176 27.9153C92.02 27.9153 91.4895 28.0348 91.0261 28.2743C90.5693 28.5067 90.1832 28.8452 89.8675 29.2897C89.5586 29.7342 89.3236 30.271 89.1624 30.9001C89.0012 31.5292 88.9207 32.2369 88.9207 33.0233C88.9207 34.0833 89.0483 34.9894 89.3036 35.7415C89.5654 36.4868 89.9683 37.0579 90.5123 37.4544C91.0562 37.8442 91.758 38.0391 92.6176 38.0391C93.2153 38.0391 93.813 37.9707 94.4107 37.834C95.015 37.6972 95.6699 37.5024 96.375 37.2494V39.9161C95.7236 40.1897 95.0822 40.3846 94.4509 40.5008C93.8198 40.6238 93.1112 40.6855 92.3254 40.6855C90.8077 40.6855 89.5586 40.3675 88.5782 39.7315C87.6044 39.0887 86.8825 38.193 86.4124 37.0441C85.9423 35.8886 85.7073 34.5413 85.7073 33.0028C85.7073 31.8677 85.8583 30.8284 86.1606 29.8845C86.4628 28.9409 86.9061 28.1239 87.4903 27.4331C88.0745 26.7425 88.7964 26.2091 89.6561 25.833C90.5156 25.457 91.5028 25.2688 92.6176 25.2688C93.3497 25.2688 94.0816 25.3646 94.8137 25.556C95.5524 25.7406 96.2574 25.9972 96.9291 26.3253L95.9217 28.9102C95.3711 28.6435 94.817 28.4109 94.2596 28.2127C93.7022 28.0144 93.1549 27.9153 92.6176 27.9153ZM108 40.4803H99.5179V25.4843H108V28.0897H102.641V31.3822H107.627V33.9876H102.641V37.8545H108V40.4803Z" fill="#232323"/>
<path d="M9.12252 46.0019L33.1381 34.4205C37.6084 31.7801 37.5965 30.8416 33.0353 29.172C30.5887 27.4091 28.15 26.1051 25.7469 26.8932L13.0631 33.153C9.82602 35.0137 8.99215 37.3372 9.00006 39.8192L9.12252 46.0019Z" fill="url(#paint0_linear_1_618)"/>
<path d="M15.7236 11.668C15.2507 12.265 13.6688 14.4045 13.7386 17.5091C13.7541 18.292 13.9132 20.7068 15.588 22.7571C17.2435 24.7843 19.2168 25.0245 24.1522 26.509C26.1878 27.1215 29.1111 28.0595 32.6351 29.4122C32.8833 29.4702 33.6239 29.6756 34.2016 30.3772C34.9226 31.2494 34.8606 32.2494 34.8451 32.4625C35.0428 32.2764 35.3259 31.9935 35.6205 31.6136C38.0165 28.5245 38.0669 23.106 35.4926 20.7183C34.8876 20.1602 34.5271 20.1253 31.3403 19.0362C28.7233 18.1447 26.6374 17.3734 25.3309 16.8811C22.1284 15.1409 18.9261 13.4045 15.7236 11.668Z" fill="url(#paint1_linear_1_618)"/>
<path d="M0 2.06034C0.366385 2.04831 0.927816 2.03647 1.61669 2.02055C2.53635 2.00463 3.35655 1.9926 3.53585 1.9926C4.21657 1.98872 7.39808 1.98076 9.03458 3.56823C9.89053 4.39575 10.3564 5.5057 10.3286 7.78151C10.2569 13.1964 10.2927 16.2558 10.3445 18.078C10.3605 18.6071 10.4481 21.5194 10.5277 25.4782C10.5833 26.9343 10.5833 26.6159 10.647 28.2712C10.7745 31.5733 10.7785 33.0254 10.906 37.4497C10.9258 38.1419 10.9576 39.1645 10.9975 40.4137C10.9895 40.4932 10.8063 42.3472 12.1561 43.3062C12.7653 43.7357 13.4143 43.7955 13.7368 43.7994C13.263 44.2012 10.5475 46.4213 6.80479 45.9281C6.08017 45.8326 3.45213 45.4865 1.86749 43.4415C0.875952 42.1642 0.756666 39.9322 0.51772 35.4643C0.465855 34.4658 0.406208 32.8585 0.378238 31.3147C0.350453 29.9303 0.350455 28.9077 0.350455 28.645C0.34249 26.7871 0.262841 20.1628 0 2.06034Z" fill="url(#paint2_linear_1_618)"/>
<path d="M36.8291 0.543091L18.352 9.20008C15.1231 11.395 14.31 12.5495 18.4546 14.2911L25.7295 16.5017L32.8897 13.0146C36.1227 11.2097 36.9554 8.95591 36.9476 6.54832L36.8291 0.543091Z" fill="url(#paint3_linear_1_618)"/>
<defs>
<linearGradient id="paint0_linear_1_618" x1="8.93791" y1="36.5234" x2="36.5645" y2="35.9806" gradientUnits="userSpaceOnUse">
<stop stop-color="#3B7CE7"/>
<stop offset="1.38522e-07" stop-color="#1864E3"/>
<stop offset="1" stop-color="#397DEE"/>
</linearGradient>
<linearGradient id="paint1_linear_1_618" x1="13.8349" y1="22.294" x2="37.3371" y2="21.8194" gradientUnits="userSpaceOnUse">
<stop stop-color="#0C5ADB"/>
<stop offset="1" stop-color="#00368E"/>
</linearGradient>
<linearGradient id="paint2_linear_1_618" x1="0.231537" y1="24.1036" x2="13.3336" y2="23.8391" gradientUnits="userSpaceOnUse">
<stop stop-color="#0C5ADB"/>
<stop offset="1" stop-color="#0440A2"/>
</linearGradient>
<linearGradient id="paint3_linear_1_618" x1="15.5673" y1="8.83786" x2="36.9874" y2="8.40466" gradientUnits="userSpaceOnUse">
<stop stop-color="#0C5ADB"/>
<stop offset="1.38522e-07" stop-color="#4184F3"/>
<stop offset="1" stop-color="#3D81F0"/>
</linearGradient>
</defs>
</svg>
